<svg width="37" height="37" viewBox="0 0 37 37" fill="none" xmlns="http://www.w3.org/2000/svg">
<path d="M26.9792 10.021H26.9946M10.7917 3.0835H26.2083C30.4655 3.0835 33.9167 6.53463 33.9167 10.7918V26.2085C33.9167 30.4657 30.4655 33.9168 26.2083 33.9168H10.7917C6.53447 33.9168 3.08334 30.4657 3.08334 26.2085V10.7918C3.08334 6.53463 6.53447 3.0835 10.7917 3.0835ZM24.6667 17.5289C24.8569 18.812 24.6378 20.1223 24.0404 21.2736C23.443 22.425 22.4978 23.3586 21.3392 23.9417C20.1806 24.5249 18.8676 24.7279 17.587 24.5218C16.3064 24.3157 15.1234 23.7111 14.2062 22.794C13.289 21.8768 12.6844 20.6938 12.4784 19.4132C12.2723 18.1326 12.4753 16.8196 13.0584 15.661C13.6416 14.5024 14.5752 13.5572 15.7265 12.9598C16.8778 12.3624 18.1882 12.1432 19.4713 12.3335C20.78 12.5276 21.9916 13.1374 22.9272 14.073C23.8627 15.0085 24.4726 16.2202 24.6667 17.5289Z" stroke="white" stroke-width="3" stroke-linecap="round" stroke-linejoin="round"/>
</svg>
